<mxfile host="app.diagrams.net" modified="2023-11-29T12:56:08.745Z" agent="Mozilla/5.0 (Windows NT 10.0; Win64; x64) AppleWebKit/537.36 (KHTML, like Gecko) Chrome/119.0.0.0 Safari/537.36 Edg/119.0.0.0" etag="BUJS_hKruz7e-hOGTNpj" version="22.1.4" type="github">
  <diagram id="C5RBs43oDa-KdzZeNtuy" name="Page-1">
    <mxGraphModel dx="1434" dy="1872" grid="1" gridSize="10" guides="1" tooltips="1" connect="1" arrows="1" fold="1" page="1" pageScale="1" pageWidth="827" pageHeight="1169" math="0" shadow="0">
      <root>
        <mxCell id="WIyWlLk6GJQsqaUBKTNV-0" />
        <mxCell id="WIyWlLk6GJQsqaUBKTNV-1" parent="WIyWlLk6GJQsqaUBKTNV-0" />
        <mxCell id="Eg_RwD-KVxIqUHg4ce4Y-0" value="GUI" style="rounded=0;whiteSpace=wrap;html=1;" vertex="1" parent="WIyWlLk6GJQsqaUBKTNV-1">
          <mxGeometry x="120" y="100" width="180" height="70" as="geometry" />
        </mxCell>
        <mxCell id="Eg_RwD-KVxIqUHg4ce4Y-2" value="" style="endArrow=classic;html=1;rounded=0;" edge="1" parent="WIyWlLk6GJQsqaUBKTNV-1">
          <mxGeometry width="50" height="50" relative="1" as="geometry">
            <mxPoint x="300" y="140" as="sourcePoint" />
            <mxPoint x="370" y="140" as="targetPoint" />
          </mxGeometry>
        </mxCell>
        <mxCell id="Eg_RwD-KVxIqUHg4ce4Y-3" value="EPICS Communication" style="rounded=0;whiteSpace=wrap;html=1;" vertex="1" parent="WIyWlLk6GJQsqaUBKTNV-1">
          <mxGeometry x="370" y="95" width="190" height="75" as="geometry" />
        </mxCell>
        <mxCell id="Eg_RwD-KVxIqUHg4ce4Y-6" value="" style="endArrow=classic;html=1;rounded=0;" edge="1" parent="WIyWlLk6GJQsqaUBKTNV-1">
          <mxGeometry width="50" height="50" relative="1" as="geometry">
            <mxPoint x="210" y="170" as="sourcePoint" />
            <mxPoint x="280" y="250" as="targetPoint" />
            <Array as="points" />
          </mxGeometry>
        </mxCell>
        <mxCell id="Eg_RwD-KVxIqUHg4ce4Y-8" value="" style="endArrow=classic;html=1;rounded=0;" edge="1" parent="WIyWlLk6GJQsqaUBKTNV-1">
          <mxGeometry width="50" height="50" relative="1" as="geometry">
            <mxPoint x="210" y="170" as="sourcePoint" />
            <mxPoint x="140" y="250" as="targetPoint" />
          </mxGeometry>
        </mxCell>
        <mxCell id="Eg_RwD-KVxIqUHg4ce4Y-9" value="Scan Script" style="rounded=0;whiteSpace=wrap;html=1;" vertex="1" parent="WIyWlLk6GJQsqaUBKTNV-1">
          <mxGeometry x="270" y="250" width="120" height="60" as="geometry" />
        </mxCell>
        <mxCell id="Eg_RwD-KVxIqUHg4ce4Y-10" value="Manual Control" style="rounded=0;whiteSpace=wrap;html=1;" vertex="1" parent="WIyWlLk6GJQsqaUBKTNV-1">
          <mxGeometry x="80" y="250" width="130" height="60" as="geometry" />
        </mxCell>
        <mxCell id="Eg_RwD-KVxIqUHg4ce4Y-11" value="" style="shape=flexArrow;endArrow=classic;html=1;rounded=0;" edge="1" parent="WIyWlLk6GJQsqaUBKTNV-1">
          <mxGeometry width="50" height="50" relative="1" as="geometry">
            <mxPoint x="390" y="300" as="sourcePoint" />
            <mxPoint x="460" y="300" as="targetPoint" />
          </mxGeometry>
        </mxCell>
        <mxCell id="Eg_RwD-KVxIqUHg4ce4Y-12" value="&lt;br&gt;Move collimator to grid-position" style="ellipse;whiteSpace=wrap;html=1;" vertex="1" parent="WIyWlLk6GJQsqaUBKTNV-1">
          <mxGeometry x="440" y="280" width="200" height="130" as="geometry" />
        </mxCell>
        <mxCell id="Eg_RwD-KVxIqUHg4ce4Y-16" value="&amp;nbsp;Move Downstream Slit through Beam&lt;br&gt;and measure" style="ellipse;whiteSpace=wrap;html=1;" vertex="1" parent="WIyWlLk6GJQsqaUBKTNV-1">
          <mxGeometry x="450" y="470" width="200" height="120" as="geometry" />
        </mxCell>
        <mxCell id="Eg_RwD-KVxIqUHg4ce4Y-17" value="" style="endArrow=classic;html=1;rounded=0;exitX=0.47;exitY=1.023;exitDx=0;exitDy=0;exitPerimeter=0;entryX=0.5;entryY=0;entryDx=0;entryDy=0;" edge="1" parent="WIyWlLk6GJQsqaUBKTNV-1" source="Eg_RwD-KVxIqUHg4ce4Y-12" target="Eg_RwD-KVxIqUHg4ce4Y-16">
          <mxGeometry relative="1" as="geometry">
            <mxPoint x="520" y="410" as="sourcePoint" />
            <mxPoint x="534" y="460" as="targetPoint" />
          </mxGeometry>
        </mxCell>
        <mxCell id="Eg_RwD-KVxIqUHg4ce4Y-18" value="Reached Position" style="edgeLabel;resizable=0;html=1;align=center;verticalAlign=middle;" connectable="0" vertex="1" parent="Eg_RwD-KVxIqUHg4ce4Y-17">
          <mxGeometry relative="1" as="geometry" />
        </mxCell>
        <mxCell id="Eg_RwD-KVxIqUHg4ce4Y-20" value="" style="endArrow=classic;html=1;rounded=0;" edge="1" parent="WIyWlLk6GJQsqaUBKTNV-1">
          <mxGeometry relative="1" as="geometry">
            <mxPoint x="550" y="590" as="sourcePoint" />
            <mxPoint x="550" y="700" as="targetPoint" />
          </mxGeometry>
        </mxCell>
        <mxCell id="Eg_RwD-KVxIqUHg4ce4Y-21" value="Label" style="edgeLabel;resizable=0;html=1;align=center;verticalAlign=middle;" connectable="0" vertex="1" parent="Eg_RwD-KVxIqUHg4ce4Y-20">
          <mxGeometry relative="1" as="geometry" />
        </mxCell>
        <mxCell id="Eg_RwD-KVxIqUHg4ce4Y-22" value="Reached End" style="edgeLabel;html=1;align=center;verticalAlign=middle;resizable=0;points=[];" vertex="1" connectable="0" parent="Eg_RwD-KVxIqUHg4ce4Y-20">
          <mxGeometry y="5" relative="1" as="geometry">
            <mxPoint as="offset" />
          </mxGeometry>
        </mxCell>
        <mxCell id="Eg_RwD-KVxIqUHg4ce4Y-23" value="Move Slit back to start-point&lt;br&gt;" style="ellipse;whiteSpace=wrap;html=1;" vertex="1" parent="WIyWlLk6GJQsqaUBKTNV-1">
          <mxGeometry x="445" y="700" width="210" height="120" as="geometry" />
        </mxCell>
        <mxCell id="Eg_RwD-KVxIqUHg4ce4Y-24" value="" style="html=1;shadow=0;dashed=0;align=center;verticalAlign=middle;shape=mxgraph.arrows2.uTurnArrow;dy=11;arrowHead=43;dx2=25;" vertex="1" parent="WIyWlLk6GJQsqaUBKTNV-1">
          <mxGeometry x="190" y="330" width="250" height="450" as="geometry" />
        </mxCell>
        <mxCell id="Eg_RwD-KVxIqUHg4ce4Y-25" value="Next grid-position" style="text;html=1;strokeColor=none;fillColor=none;align=center;verticalAlign=middle;whiteSpace=wrap;rounded=0;" vertex="1" parent="WIyWlLk6GJQsqaUBKTNV-1">
          <mxGeometry x="210" y="540" width="140" height="30" as="geometry" />
        </mxCell>
        <mxCell id="Eg_RwD-KVxIqUHg4ce4Y-26" value="" style="endArrow=classic;html=1;rounded=0;" edge="1" parent="WIyWlLk6GJQsqaUBKTNV-1">
          <mxGeometry width="50" height="50" relative="1" as="geometry">
            <mxPoint x="650" y="530" as="sourcePoint" />
            <mxPoint x="700" y="530" as="targetPoint" />
          </mxGeometry>
        </mxCell>
        <mxCell id="Eg_RwD-KVxIqUHg4ce4Y-27" value="Save Data into array" style="ellipse;whiteSpace=wrap;html=1;aspect=fixed;" vertex="1" parent="WIyWlLk6GJQsqaUBKTNV-1">
          <mxGeometry x="700" y="470" width="120" height="120" as="geometry" />
        </mxCell>
      </root>
    </mxGraphModel>
  </diagram>
</mxfile>
